<?xml version="1.0" encoding="utf-8"?>
<!-- Generator: Adobe Illustrator 24.1.2, SVG Export Plug-In . SVG Version: 6.00 Build 0)  -->
<svg version="1.1" id="Ebene_1" xmlns="http://www.w3.org/2000/svg" xmlns:xlink="http://www.w3.org/1999/xlink" x="0px" y="0px"
	 viewBox="0 0 213.5 130.4" style="enable-background:new 0 0 213.5 130.4;" xml:space="preserve">
<style type="text/css">
	.st0{fill:#00747B;}
</style>
<g>
	<g>
		<path class="st0" d="M48.6,130.4c-11.2,0-12.6-7.2-12.6-32.2c0-20.7,0.5-31,12.4-31c11.5,0,12.2,9.4,12.2,21h-5.8
			c0-10.6-0.9-15.4-6.3-15.4c-5.8,0-6.5,4-6.5,25.4c0,23.4,0.9,26.8,6.8,26.8c6.2,0,5.8-7.4,6.2-15.8h5.8
			C60.6,121.1,59.2,130.4,48.6,130.4z"/>
	</g>
	<g>
		<path class="st0" d="M71.4,129.7h-5.7l10.1-62.2h7.5l8.7,62.2h-5.8c0,0-1.7-13.7-1.9-15.3H73.6C73.4,116.1,71.4,129.7,71.4,129.7z
			 M80.1,84.4c0-1.2-0.8-10.5-0.8-10.5s-0.9,9.2-0.9,10.4C78.2,86,74.6,109,74.6,109h8.8C83.4,109,80.1,85.6,80.1,84.4z"/>
	</g>
	<g>
		<path class="st0" d="M98.9,129.7V67.5h13.5c6.4,0,9.1,3.8,9.1,15.2c0,7.5-0.3,14.7-5.9,15.3c5.2,0.6,6.9,5.2,6.9,14.8
			c0,12.4-2.7,16.9-10.8,16.9L98.9,129.7L98.9,129.7z M110.5,72.8h-5.8v23h7c2.6,0,4-2,4-11.9C115.6,74.6,114.2,72.8,110.5,72.8z
			 M111.3,100.9h-6.7v23.5h6.6c4.2,0,5.3-1.6,5.3-12.3C116.6,102.6,114.6,100.9,111.3,100.9z"/>
	</g>
	<g>
		<path class="st0" d="M131.5,129.7V67.5h5.9v62.2L131.5,129.7L131.5,129.7z"/>
	</g>
	<g>
		<path class="st0" d="M163.5,129.7l-10.8-44v44h-5.3V67.5h6.5l10.8,45.5V67.5h5.3v62.2L163.5,129.7L163.5,129.7z"/>
	</g>
</g>
<g>
	<g>
		<path class="st0" d="M3,101.2c-0.8,0-1.5-0.3-2.1-0.9c-1.2-1.2-1.2-3.1,0-4.2L89.2,6.7c0.8-0.8,1.9-1.1,2.9-0.8
			C93.2,6.2,94,7,94.3,8.1l6.6,28l2.8-22.8c0.1-1.1,0.9-2.1,2-2.5c1.1-0.4,2.3-0.1,3.1,0.7l39.5,39.5c1.2,1.2,1.2,3.1,0,4.2
			s-3.1,1.2-4.2,0L108.9,20l-4.1,33.4c-0.2,1.4-1.4,2.5-2.8,2.6c-1.5,0.1-2.7-0.9-3.1-2.3l-9.2-39L5.2,100.3
			C4.6,100.9,3.8,101.2,3,101.2z"/>
	</g>
	<g>
		<g>
			<path class="st0" d="M210.5,101.5c-0.8,0-1.6-0.3-2.1-0.9L114.6,5.2c-1.2-1.2-1.1-3.1,0-4.2c1.2-1.2,3.1-1.1,4.2,0l93.7,95.3
				c1.2,1.2,1.1,3.1,0,4.2C212,101.2,211.2,101.5,210.5,101.5z"/>
		</g>
		<g>
			<path class="st0" d="M158.1,46.4C158.1,46.4,158.1,46.4,158.1,46.4c-1.7,0-3-1.4-3-3L155.2,3c0-1.7,1.3-3,3-3c0,0,0,0,0,0
				c1.7,0,3,1.4,3,3l-0.1,40.3C161.1,45,159.7,46.4,158.1,46.4z"/>
		</g>
	</g>
</g>
</svg>
